# xmcd
#
# Track frame offsets: 
#        150
#        14332
#        29113
#        43275
#        56760
#        72519
#        89079
#        107793
#        129340
#        145531
#        161343
#
# Disc length: 2387 seconds
#
# Revision: 2
# Processed by: cddbd v1.5.1PL2 Copyright (c) Steve Scherf et al.
# Submitted via: ExactAudioCopy v0.95b3
#
DISCID=9f09510b
DTITLE=Buddy Jewel - Times Like These
DYEAR=2005
DGENRE=Country
TTITLE0=Me Lovin' You
TTITLE1=If She Were Any Other Woman
TTITLE2=Back To You
TTITLE3=So Gone
TTITLE4=You Ain't Doin' It Right
TTITLE5=Addicted To The Rain
TTITLE6=I'd Run
TTITLE7=Dyess Arkansas
TTITLE8=Glad I'm Gone
TTITLE9=Times Like These
TTITLE10=Run Away Home
EXTD=
EXTT0=
EXTT1=
EXTT2=
EXTT3=
EXTT4=
EXTT5=
EXTT6=
EXTT7=
EXTT8=
EXTT9=
EXTT10=
PLAYORDER=
